ffmpeg started on 2025-05-28 at 11:26:54
Report written to "D:\Convert\FFMetrics\reports\ssim_report-6.txt"
Log level: 32
Command line:
ffmpeg -hide_banner -nostdin -i "G:\\\xc0\xed\xe8\xec\xe5\\\xce\xed\xe3\xee\xe8\xed\xe3\xe8\\!_36_\xce\xf1\xe5\xed\xfc_2024\\JamClub\\SAO\\\xc0\xeb\xfc\xf2\xe5\xf0\xed\xe0\xf2\xe8\xe2\xed\xe0\xff \xab\xcf\xf0\xe8\xe7\xf0\xe0\xf7\xed\xe0\xff \xef\xf3\xeb\xff\xbb\\\xd2\xc2-2\\JamClub_Sword_Art_Online_Alternative_Gun_Gale_Online_II_03_1080p_HEVC.mkv" -i "G:\\\xc0\xed\xe8\xec\xe5\\\xce\xed\xe3\xee\xe8\xed\xe3\xe8\\!_36_\xce\xf1\xe5\xed\xfc_2024\\JamClub\\SAO\\\xc0\xeb\xfc\xf2\xe5\xf0\xed\xe0\xf2\xe8\xe2\xed\xe0\xff \xab\xcf\xf0\xe8\xe7\xf0\xe0\xf7\xed\xe0\xff \xef\xf3\xeb\xff\xbb\\\xd2\xc2-2\\JamClub_Sword_Art_Online_Alternative_Gun_Gale_Online_II_03_1080p.mp4" -lavfi "[0:v]settb=AVTB,setpts=PTS-STARTPTS,format=pix_fmts=yuv420p10,fps=24000/1001,scale=1920:1080:flags=bicubic[main];[1:v]settb=AVTB,setpts=PTS-STARTPTS,format=pix_fmts=yuv420p,fps=24000/1001,scale=1920:1080:flags=bicubic[ref];[main][ref]ssim=eof_action=endall:stats_file='D\\:/Convert/FFMetrics/logs/ssim_logfile-6.txt'" -f null -
Input #0, matroska,webm, from 'G:\Аниме\Онгоинги\!_36_Осень_2024\JamClub\SAO\Альтернативная «Призрачная пуля»\ТВ-2\JamClub_Sword_Art_Online_Alternative_Gun_Gale_Online_II_03_1080p_HEVC.mkv':
  Metadata:
    COMPATIBLE_BRANDS: isomiso2avc1mp41
    MAJOR_BRAND     : isom
    MINOR_VERSION   : 512
    ENCODER         : Lavf61.7.100
  Duration: 00:24:02.31, start: -0.001000, bitrate: 1303 kb/s
  Stream #0:0: Video: hevc (Main 10), yuv420p10le(tv, bt709, progressive), 1920x1080 [SAR 1:1 DAR 16:9], 23.98 fps, 23.98 tbr, 1k tbn (default)
      Metadata:
        HANDLER_NAME    : VideoHandler
        VENDOR_ID       : [0][0][0][0]
        ENCODER         : Lavc61.19.100 libx265
        BPS             : 1105927
        DURATION        : 00:24:02.232708333
        NUMBER_OF_FRAMES: 34580
        NUMBER_OF_BYTES : 199375436
        _STATISTICS_WRITING_APP: mkvpropedit v66.0.0 ('Josie') 64-bit
        _STATISTICS_WRITING_DATE_UTC: 2025-05-27 15:26:52
        _STATISTICS_TAGS: BPS DURATION NUMBER_OF_FRAMES NUMBER_OF_BYTES
  Stream #0:1(eng): Audio: aac (LC), 48000 Hz, stereo, fltp (default)
      Metadata:
        HANDLER_NAME    : SoundHandler
        VENDOR_ID       : [0][0][0][0]
        ENCODER         : Lavc61.19.100 aac
        BPS             : 193807
        DURATION        : 00:24:02.264000000
        NUMBER_OF_FRAMES: 67607
        NUMBER_OF_BYTES : 34940211
        _STATISTICS_WRITING_APP: mkvpropedit v66.0.0 ('Josie') 64-bit
        _STATISTICS_WRITING_DATE_UTC: 2025-05-27 15:26:52
        _STATISTICS_TAGS: BPS DURATION NUMBER_OF_FRAMES NUMBER_OF_BYTES
Input #1, mov,mp4,m4a,3gp,3g2,mj2, from 'G:\Аниме\Онгоинги\!_36_Осень_2024\JamClub\SAO\Альтернативная «Призрачная пуля»\ТВ-2\JamClub_Sword_Art_Online_Alternative_Gun_Gale_Online_II_03_1080p.mp4':
  Metadata:
    major_brand     : isom
    minor_version   : 512
    compatible_brands: isomiso2avc1mp41
    encoder         : Lavf60.16.100
  Duration: 00:24:02.28, start: 0.000000, bitrate: 4929 kb/s
  Stream #1:0[0x1](und): Video: h264 (High) (avc1 / 0x31637661), yuv420p(progressive), 1920x1080 [SAR 1:1 DAR 16:9], 4731 kb/s, 23.98 fps, 23.98 tbr, 90k tbn (default)
      Metadata:
        handler_name    : VideoHandler
        vendor_id       : [0][0][0][0]
  Stream #1:1[0x2](eng): Audio: aac (LC) (mp4a / 0x6134706D), 48000 Hz, stereo, fltp, 191 kb/s (default)
      Metadata:
        handler_name    : SoundHandler
        vendor_id       : [0][0][0][0]
Stream mapping:
  Stream #0:0 (hevc) -> settb:default
  Stream #1:0 (h264) -> settb:default
  ssim:default -> Stream #0:0 (wrapped_avframe)
  Stream #0:1 -> #0:1 (aac (native) -> pcm_s16le (native))
Output #0, null, to 'pipe:':
  Metadata:
    COMPATIBLE_BRANDS: isomiso2avc1mp41
    MAJOR_BRAND     : isom
    MINOR_VERSION   : 512
    encoder         : Lavf61.7.100
  Stream #0:0: Video: wrapped_avframe, yuv420p10le(tv, bt709, progressive), 1920x1080 [SAR 1:1 DAR 16:9], q=2-31, 200 kb/s, 23.98 fps, 23.98 tbn
      Metadata:
        encoder         : Lavc61.19.100 wrapped_avframe
  Stream #0:1(eng): Audio: pcm_s16le, 48000 Hz, stereo, s16, 1536 kb/s (default)
      Metadata:
        HANDLER_NAME    : SoundHandler
        VENDOR_ID       : [0][0][0][0]
        _STATISTICS_TAGS: BPS DURATION NUMBER_OF_FRAMES NUMBER_OF_BYTES
        BPS             : 193807
        DURATION        : 00:24:02.264000000
        NUMBER_OF_FRAMES: 67607
        NUMBER_OF_BYTES : 34940211
        _STATISTICS_WRITING_APP: mkvpropedit v66.0.0 ('Josie') 64-bit
        _STATISTICS_WRITING_DATE_UTC: 2025-05-27 15:26:52
        encoder         : Lavc61.19.100 pcm_s16le
frame=  107 fps=0.0 q=-0.0 size=N/A time=00:00:04.46 bitrate=N/A speed=8.71x    frame=  266 fps=257 q=-0.0 size=N/A time=00:00:11.09 bitrate=N/A speed=10.7x    frame=  448 fps=289 q=-0.0 size=N/A time=00:00:18.68 bitrate=N/A speed=12.1x    frame=  652 fps=317 q=-0.0 size=N/A time=00:00:27.19 bitrate=N/A speed=13.2x    frame=  844 fps=328 q=-0.0 size=N/A time=00:00:35.20 bitrate=N/A speed=13.7x    frame= 1091 fps=353 q=-0.0 size=N/A time=00:00:45.50 bitrate=N/A speed=14.7x    frame= 1335 fps=370 q=-0.0 size=N/A time=00:00:55.68 bitrate=N/A speed=15.5x    frame= 1604 fps=388 q=-0.0 size=N/A time=00:01:06.90 bitrate=N/A speed=16.2x    frame= 1865 fps=402 q=-0.0 size=N/A time=00:01:17.78 bitrate=N/A speed=16.8x    frame= 2089 fps=405 q=-0.0 size=N/A time=00:01:27.12 bitrate=N/A speed=16.9x    frame= 2274 fps=401 q=-0.0 size=N/A time=00:01:34.84 bitrate=N/A speed=16.7x    frame= 2491 fps=403 q=-0.0 size=N/A time=00:01:43.89 bitrate=N/A speed=16.8x    frame= 2691 fps=401 q=-0.0 size=N/A time=00:01:52.23 bitrate=N/A speed=16.7x    frame= 2904 fps=402 q=-0.0 size=N/A time=00:02:01.12 bitrate=N/A speed=16.8x    frame= 3103 fps=402 q=-0.0 size=N/A time=00:02:09.42 bitrate=N/A speed=16.7x    frame= 3292 fps=399 q=-0.0 size=N/A time=00:02:17.30 bitrate=N/A speed=16.6x    frame= 3457 fps=395 q=-0.0 size=N/A time=00:02:24.18 bitrate=N/A speed=16.5x    frame= 3633 fps=392 q=-0.0 size=N/A time=00:02:31.52 bitrate=N/A speed=16.3x    frame= 3777 fps=385 q=-0.0 size=N/A time=00:02:37.53 bitrate=N/A speed=16.1x    frame= 3955 fps=384 q=-0.0 size=N/A time=00:02:44.95 bitrate=N/A speed=  16x    frame= 4127 fps=381 q=-0.0 size=N/A time=00:02:52.13 bitrate=N/A speed=15.9x    frame= 4300 fps=379 q=-0.0 size=N/A time=00:02:59.34 bitrate=N/A speed=15.8x    frame= 4479 fps=378 q=-0.0 size=N/A time=00:03:06.81 bitrate=N/A speed=15.8x    frame= 4735 fps=383 q=-0.0 size=N/A time=00:03:17.48 bitrate=N/A speed=  16x    frame= 5000 fps=388 q=-0.0 size=N/A time=00:03:28.54 bitrate=N/A speed=16.2x    frame= 5226 fps=390 q=-0.0 size=N/A time=00:03:37.96 bitrate=N/A speed=16.3x    frame= 5478 fps=394 q=-0.0 size=N/A time=00:03:48.47 bitrate=N/A speed=16.4x    frame= 5743 fps=398 q=-0.0 size=N/A time=00:03:59.53 bitrate=N/A speed=16.6x    frame= 5983 fps=400 q=-0.0 size=N/A time=00:04:09.54 bitrate=N/A speed=16.7x    frame= 6235 fps=403 q=-0.0 size=N/A time=00:04:20.05 bitrate=N/A speed=16.8x    frame= 6469 fps=405 q=-0.0 size=N/A time=00:04:29.81 bitrate=N/A speed=16.9x    frame= 6662 fps=404 q=-0.0 size=N/A time=00:04:37.86 bitrate=N/A speed=16.8x    frame= 6914 fps=406 q=-0.0 size=N/A time=00:04:48.37 bitrate=N/A speed=16.9x    frame= 7171 fps=409 q=-0.0 size=N/A time=00:04:59.09 bitrate=N/A speed=17.1x    frame= 7437 fps=412 q=-0.0 size=N/A time=00:05:10.18 bitrate=N/A speed=17.2x    frame= 7702 fps=415 q=-0.0 size=N/A time=00:05:21.23 bitrate=N/A speed=17.3x    frame= 7935 fps=416 q=-0.0 size=N/A time=00:05:30.95 bitrate=N/A speed=17.4x    frame= 8215 fps=419 q=-0.0 size=N/A time=00:05:42.63 bitrate=N/A speed=17.5x    frame= 8472 fps=421 q=-0.0 size=N/A time=00:05:53.35 bitrate=N/A speed=17.6x    frame= 8727 fps=423 q=-0.0 size=N/A time=00:06:03.98 bitrate=N/A speed=17.6x    frame= 8965 fps=424 q=-0.0 size=N/A time=00:06:13.91 bitrate=N/A speed=17.7x    frame= 9213 fps=425 q=-0.0 size=N/A time=00:06:24.25 bitrate=N/A speed=17.7x    frame= 9463 fps=426 q=-0.0 size=N/A time=00:06:34.68 bitrate=N/A speed=17.8x    frame= 9697 fps=427 q=-0.0 size=N/A time=00:06:44.44 bitrate=N/A speed=17.8x    frame= 9931 fps=428 q=-0.0 size=N/A time=00:06:54.20 bitrate=N/A speed=17.8x    frame=10148 fps=428 q=-0.0 size=N/A time=00:07:03.25 bitrate=N/A speed=17.8x    frame=10397 fps=429 q=-0.0 size=N/A time=00:07:13.64 bitrate=N/A speed=17.9x    frame=10627 fps=429 q=-0.0 size=N/A time=00:07:23.23 bitrate=N/A speed=17.9x    frame=10869 fps=430 q=-0.0 size=N/A time=00:07:33.32 bitrate=N/A speed=17.9x    frame=11104 fps=430 q=-0.0 size=N/A time=00:07:43.12 bitrate=N/A speed=  18x    frame=11327 fps=430 q=-0.0 size=N/A time=00:07:52.43 bitrate=N/A speed=17.9x    frame=11538 fps=430 q=-0.0 size=N/A time=00:08:01.23 bitrate=N/A speed=17.9x    frame=11778 fps=431 q=-0.0 size=N/A time=00:08:11.24 bitrate=N/A speed=  18x    frame=12040 fps=432 q=-0.0 size=N/A time=00:08:22.16 bitrate=N/A speed=  18x    frame=12307 fps=433 q=-0.0 size=N/A time=00:08:33.30 bitrate=N/A speed=18.1x    frame=12525 fps=433 q=-0.0 size=N/A time=00:08:42.39 bitrate=N/A speed=18.1x    frame=12759 fps=434 q=-0.0 size=N/A time=00:08:52.15 bitrate=N/A speed=18.1x    frame=13001 fps=434 q=-0.0 size=N/A time=00:09:02.25 bitrate=N/A speed=18.1x    frame=13255 fps=435 q=-0.0 size=N/A time=00:09:12.84 bitrate=N/A speed=18.2x    frame=13525 fps=437 q=-0.0 size=N/A time=00:09:24.10 bitrate=N/A speed=18.2x    frame=13776 fps=437 q=-0.0 size=N/A time=00:09:34.57 bitrate=N/A speed=18.2x    frame=14017 fps=438 q=-0.0 size=N/A time=00:09:44.62 bitrate=N/A speed=18.3x    frame=14209 fps=437 q=-0.0 size=N/A time=00:09:52.63 bitrate=N/A speed=18.2x    frame=14418 fps=437 q=-0.0 size=N/A time=00:10:01.35 bitrate=N/A speed=18.2x    frame=14636 fps=436 q=-0.0 size=N/A time=00:10:10.44 bitrate=N/A speed=18.2x    frame=14881 fps=437 q=-0.0 size=N/A time=00:10:20.66 bitrate=N/A speed=18.2x    frame=15133 fps=438 q=-0.0 size=N/A time=00:10:31.17 bitrate=N/A speed=18.3x    frame=15383 fps=438 q=-0.0 size=N/A time=00:10:41.59 bitrate=N/A speed=18.3x    frame=15608 fps=438 q=-0.0 size=N/A time=00:10:50.98 bitrate=N/A speed=18.3x    frame=15832 fps=438 q=-0.0 size=N/A time=00:11:00.32 bitrate=N/A speed=18.3x    frame=16043 fps=438 q=-0.0 size=N/A time=00:11:09.12 bitrate=N/A speed=18.3x    frame=16267 fps=438 q=-0.0 size=N/A time=00:11:18.46 bitrate=N/A speed=18.3x    frame=16481 fps=437 q=-0.0 size=N/A time=00:11:27.39 bitrate=N/A speed=18.2x    frame=16708 fps=438 q=-0.0 size=N/A time=00:11:36.86 bitrate=N/A speed=18.2x    frame=16962 fps=438 q=-0.0 size=N/A time=00:11:47.45 bitrate=N/A speed=18.3x    frame=17214 fps=439 q=-0.0 size=N/A time=00:11:58.00 bitrate=N/A speed=18.3x    frame=17439 fps=439 q=-0.0 size=N/A time=00:12:07.35 bitrate=N/A speed=18.3x    frame=17665 fps=439 q=-0.0 size=N/A time=00:12:16.77 bitrate=N/A speed=18.3x    frame=17924 fps=440 q=-0.0 size=N/A time=00:12:27.58 bitrate=N/A speed=18.3x    frame=18178 fps=440 q=-0.0 size=N/A time=00:12:38.17 bitrate=N/A speed=18.4x    frame=18436 fps=441 q=-0.0 size=N/A time=00:12:48.93 bitrate=N/A speed=18.4x    frame=18644 fps=441 q=-0.0 size=N/A time=00:12:57.61 bitrate=N/A speed=18.4x    frame=18870 fps=441 q=-0.0 size=N/A time=00:13:07.03 bitrate=N/A speed=18.4x    frame=19081 fps=440 q=-0.0 size=N/A time=00:13:15.83 bitrate=N/A speed=18.4x    frame=19300 fps=440 q=-0.0 size=N/A time=00:13:24.97 bitrate=N/A speed=18.4x    frame=19546 fps=441 q=-0.0 size=N/A time=00:13:35.23 bitrate=N/A speed=18.4x    frame=19685 fps=439 q=-0.0 size=N/A time=00:13:41.02 bitrate=N/A speed=18.3x    frame=19900 fps=438 q=-0.0 size=N/A time=00:13:49.99 bitrate=N/A speed=18.3x    frame=20101 fps=438 q=-0.0 size=N/A time=00:13:58.37 bitrate=N/A speed=18.3x    frame=20282 fps=437 q=-0.0 size=N/A time=00:14:05.92 bitrate=N/A speed=18.2x    frame=20517 fps=437 q=-0.0 size=N/A time=00:14:15.72 bitrate=N/A speed=18.2x    frame=20769 fps=438 q=-0.0 size=N/A time=00:14:26.24 bitrate=N/A speed=18.3x    frame=21024 fps=438 q=-0.0 size=N/A time=00:14:36.87 bitrate=N/A speed=18.3x    frame=21221 fps=438 q=-0.0 size=N/A time=00:14:45.09 bitrate=N/A speed=18.3x    frame=21444 fps=437 q=-0.0 size=N/A time=00:14:54.39 bitrate=N/A speed=18.2x    frame=21678 fps=438 q=-0.0 size=N/A time=00:15:04.15 bitrate=N/A speed=18.3x    frame=21912 fps=438 q=-0.0 size=N/A time=00:15:13.91 bitrate=N/A speed=18.3x    frame=22169 fps=438 q=-0.0 size=N/A time=00:15:24.63 bitrate=N/A speed=18.3x    frame=22400 fps=439 q=-0.0 size=N/A time=00:15:34.26 bitrate=N/A speed=18.3x    frame=22650 fps=439 q=-0.0 size=N/A time=00:15:44.69 bitrate=N/A speed=18.3x    frame=22903 fps=440 q=-0.0 size=N/A time=00:15:55.24 bitrate=N/A speed=18.3x    frame=23173 fps=440 q=-0.0 size=N/A time=00:16:06.50 bitrate=N/A speed=18.4x    frame=23432 fps=441 q=-0.0 size=N/A time=00:16:17.30 bitrate=N/A speed=18.4x    frame=23688 fps=441 q=-0.0 size=N/A time=00:16:27.98 bitrate=N/A speed=18.4x    frame=23955 fps=442 q=-0.0 size=N/A time=00:16:39.12 bitrate=N/A speed=18.4x    frame=24213 fps=443 q=-0.0 size=N/A time=00:16:49.88 bitrate=N/A speed=18.5x    frame=24441 fps=443 q=-0.0 size=N/A time=00:16:59.39 bitrate=N/A speed=18.5x    frame=24694 fps=443 q=-0.0 size=N/A time=00:17:09.94 bitrate=N/A speed=18.5x    frame=24890 fps=443 q=-0.0 size=N/A time=00:17:18.12 bitrate=N/A speed=18.5x    frame=25072 fps=442 q=-0.0 size=N/A time=00:17:25.71 bitrate=N/A speed=18.4x    frame=25268 fps=441 q=-0.0 size=N/A time=00:17:33.88 bitrate=N/A speed=18.4x    frame=25469 fps=441 q=-0.0 size=N/A time=00:17:42.26 bitrate=N/A speed=18.4x    frame=25720 fps=441 q=-0.0 size=N/A time=00:17:52.73 bitrate=N/A speed=18.4x    frame=25979 fps=442 q=-0.0 size=N/A time=00:18:03.54 bitrate=N/A speed=18.4x    frame=26236 fps=442 q=-0.0 size=N/A time=00:18:14.25 bitrate=N/A speed=18.4x    frame=26427 fps=442 q=-0.0 size=N/A time=00:18:22.22 bitrate=N/A speed=18.4x    frame=26629 fps=441 q=-0.0 size=N/A time=00:18:30.65 bitrate=N/A speed=18.4x    frame=26856 fps=441 q=-0.0 size=N/A time=00:18:40.11 bitrate=N/A speed=18.4x    frame=27075 fps=441 q=-0.0 size=N/A time=00:18:49.25 bitrate=N/A speed=18.4x    frame=27304 fps=441 q=-0.0 size=N/A time=00:18:58.80 bitrate=N/A speed=18.4x    frame=27563 fps=442 q=-0.0 size=N/A time=00:19:09.60 bitrate=N/A speed=18.4x    frame=27806 fps=442 q=-0.0 size=N/A time=00:19:19.74 bitrate=N/A speed=18.4x    frame=28074 fps=442 q=-0.0 size=N/A time=00:19:30.91 bitrate=N/A speed=18.5x    frame=28327 fps=443 q=-0.0 size=N/A time=00:19:41.47 bitrate=N/A speed=18.5x    frame=28561 fps=443 q=-0.0 size=N/A time=00:19:51.23 bitrate=N/A speed=18.5x    frame=28772 fps=443 q=-0.0 size=N/A time=00:20:00.03 bitrate=N/A speed=18.5x    frame=28994 fps=443 q=-0.0 size=N/A time=00:20:09.29 bitrate=N/A speed=18.5x    frame=29248 fps=443 q=-0.0 size=N/A time=00:20:19.88 bitrate=N/A speed=18.5x    frame=29499 fps=443 q=-0.0 size=N/A time=00:20:30.35 bitrate=N/A speed=18.5x    frame=29742 fps=443 q=-0.0 size=N/A time=00:20:40.48 bitrate=N/A speed=18.5x    frame=29969 fps=443 q=-0.0 size=N/A time=00:20:49.95 bitrate=N/A speed=18.5x    frame=30175 fps=443 q=-0.0 size=N/A time=00:20:58.54 bitrate=N/A speed=18.5x    frame=30397 fps=443 q=-0.0 size=N/A time=00:21:07.80 bitrate=N/A speed=18.5x    frame=30620 fps=443 q=-0.0 size=N/A time=00:21:17.10 bitrate=N/A speed=18.5x    frame=30839 fps=443 q=-0.0 size=N/A time=00:21:26.24 bitrate=N/A speed=18.5x    frame=31084 fps=443 q=-0.0 size=N/A time=00:21:36.46 bitrate=N/A speed=18.5x    frame=31342 fps=444 q=-0.0 size=N/A time=00:21:47.22 bitrate=N/A speed=18.5x    frame=31595 fps=444 q=-0.0 size=N/A time=00:21:57.77 bitrate=N/A speed=18.5x    frame=31858 fps=444 q=-0.0 size=N/A time=00:22:08.74 bitrate=N/A speed=18.5x    frame=32120 fps=445 q=-0.0 size=N/A time=00:22:19.67 bitrate=N/A speed=18.5x    frame=32365 fps=445 q=-0.0 size=N/A time=00:22:29.89 bitrate=N/A speed=18.6x    frame=32618 fps=445 q=-0.0 size=N/A time=00:22:40.44 bitrate=N/A speed=18.6x    frame=32870 fps=446 q=-0.0 size=N/A time=00:22:50.95 bitrate=N/A speed=18.6x    frame=33035 fps=445 q=-0.0 size=N/A time=00:22:57.83 bitrate=N/A speed=18.5x    frame=33238 fps=444 q=-0.0 size=N/A time=00:23:06.30 bitrate=N/A speed=18.5x    frame=33479 fps=445 q=-0.0 size=N/A time=00:23:16.35 bitrate=N/A speed=18.5x    frame=33701 fps=444 q=-0.0 size=N/A time=00:23:25.61 bitrate=N/A speed=18.5x    frame=33885 fps=444 q=-0.0 size=N/A time=00:23:33.28 bitrate=N/A speed=18.5x    frame=34111 fps=444 q=-0.0 size=N/A time=00:23:42.71 bitrate=N/A speed=18.5x    frame=34332 fps=444 q=-0.0 size=N/A time=00:23:51.93 bitrate=N/A speed=18.5x    frame=34569 fps=444 q=-0.0 size=N/A time=00:24:01.81 bitrate=N/A speed=18.5x    [Parsed_ssim_10 @ 0000026b716cdfc0] SSIM Y:0.992989 (21.542260) U:0.993846 (22.108337) V:0.993166 (21.653168) All:0.993161 (21.650300)
[out#0/null @ 0000026b61ed6040] video:14858KiB audio:270428KiB subtitle:0KiB other streams:0KiB global headers:0KiB muxing overhead: unknown
frame=34579 fps=444 q=-0.0 Lsize=N/A time=00:24:02.23 bitrate=N/A speed=18.5x    
